Normalized EMG Linear Envelopes
nRows=122
nColumns=4

endheader
time	 med_gas_r	  soleus_r	 tib_ant_r	
2.79133	  0.023324	  0.020772	  0.006476	
2.8629	  0.023145	  0.020647	  0.006256	
2.93448	  0.022466	  0.020259	  0.006140	
3.00605	  0.021432	  0.019721	  0.006348	
3.07762	  0.020870	  0.019429	  0.006717	
3.14919	  0.021076	  0.019720	  0.007042	
3.22077	  0.021631	  0.020076	  0.007175	
3.29234	  0.022352	  0.020127	  0.007326	
3.36391	  0.022669	  0.019662	  0.007645	
3.43548	  0.022783	  0.018804	  0.008025	
3.50706	  0.023253	  0.018052	  0.007970	
3.57863	  0.023608	  0.017919	  0.007547	
3.6502	  0.023757	  0.018175	  0.007224	
3.72177	  0.023545	  0.018470	  0.006990	
3.79335	  0.022826	  0.018743	  0.006795	
3.86492	  0.021812	  0.018874	  0.006594	
3.93649	  0.021199	  0.018849	  0.006405	
4.00806	  0.021284	  0.019272	  0.006603	
4.07964	  0.021546	  0.020087	  0.006966	
4.15121	  0.021154	  0.020519	  0.007154	
4.22278	  0.020555	  0.020310	  0.007375	
4.29435	  0.020439	  0.019824	  0.007643	
4.36593	  0.020678	  0.019801	  0.008042	
4.4375	  0.021224	  0.021693	  0.008679	
4.50907	  0.022222	  0.027691	  0.010109	
4.58065	  0.023566	  0.038286	  0.012179	
4.65222	  0.024751	  0.049352	  0.013803	
4.72379	  0.025238	  0.055630	  0.014994	
4.79536	  0.027597	  0.065022	  0.020021	
4.86694	  0.036605	  0.094977	  0.035512	
4.93851	  0.054267	  0.146369	  0.064619	
5.01008	  0.077106	  0.202315	  0.100713	
5.08165	  0.098215	  0.245807	  0.129642	
5.15323	  0.115296	  0.272615	  0.140409	
5.2248	  0.128142	  0.278431	  0.135300	
5.29637	  0.137769	  0.270978	  0.131012	
5.36794	  0.162062	  0.280985	  0.139143	
5.43952	  0.207176	  0.314590	  0.158643	
5.51109	  0.253346	  0.337354	  0.178512	
5.58266	  0.276244	  0.333825	  0.189002	
5.65423	  0.277385	  0.315720	  0.188958	
5.72581	  0.271044	  0.307920	  0.183741	
5.79738	  0.265635	  0.324425	  0.177267	
5.86895	  0.255038	  0.355220	  0.169418	
5.94052	  0.252777	  0.389540	  0.168105	
6.0121	  0.262904	  0.418144	  0.179686	
6.08367	  0.281165	  0.441527	  0.196172	
6.15524	  0.302928	  0.453197	  0.209338	
6.22681	  0.318844	  0.457241	  0.212944	
6.29839	  0.329547	  0.452576	  0.214070	
6.36996	  0.333151	  0.445900	  0.215119	
6.44153	  0.333141	  0.443317	  0.216227	
6.5131	  0.335025	  0.449556	  0.208947	
6.58468	  0.338676	  0.458281	  0.193730	
6.65625	  0.328327	  0.454018	  0.180605	
6.72782	  0.303548	  0.452964	  0.172942	
6.7994	  0.274604	  0.441968	  0.175115	
6.87097	  0.256123	  0.418264	  0.185990	
6.94254	  0.256086	  0.400613	  0.194378	
7.01411	  0.272194	  0.416327	  0.195091	
7.08569	  0.298110	  0.451911	  0.190609	
7.15726	  0.321674	  0.490039	  0.185659	
7.22883	  0.335737	  0.508121	  0.178400	
7.3004	  0.349967	  0.491621	  0.172835	
7.37198	  0.372579	  0.471660	  0.167774	
7.44355	  0.381579	  0.452650	  0.164076	
7.51512	  0.372629	  0.451897	  0.170785	
7.58669	  0.365217	  0.467654	  0.185724	
7.65827	  0.366787	  0.482958	  0.200475	
7.72984	  0.375460	  0.482469	  0.206615	
7.80141	  0.374507	  0.468410	  0.202477	
7.87298	  0.366541	  0.460847	  0.189936	
7.94456	  0.362180	  0.472244	  0.181051	
8.01613	  0.364520	  0.497379	  0.181833	
8.0877	  0.359875	  0.515813	  0.187261	
8.15927	  0.339658	  0.511603	  0.188262	
8.23085	  0.317307	  0.489748	  0.182607	
8.30242	  0.309769	  0.476887	  0.174194	
8.37399	  0.318657	  0.493122	  0.166175	
8.44556	  0.340982	  0.518258	  0.159649	
8.51714	  0.364799	  0.525657	  0.161844	
8.58871	  0.374897	  0.518294	  0.170082	
8.66028	  0.377226	  0.515080	  0.175962	
8.73185	  0.382541	  0.515541	  0.174210	
8.80343	  0.382322	  0.514358	  0.172941	
8.875	  0.378569	  0.508515	  0.177998	
8.94657	  0.369938	  0.484970	  0.190821	
9.01815	  0.354428	  0.454195	  0.200984	
9.08972	  0.341482	  0.449070	  0.200247	
9.16129	  0.331371	  0.460114	  0.189110	
9.23286	  0.322009	  0.471467	  0.173982	
9.30444	  0.326023	  0.470188	  0.165349	
9.37601	  0.355658	  0.480262	  0.168392	
9.44758	  0.399827	  0.498362	  0.179133	
9.51915	  0.435398	  0.506350	  0.190715	
9.59073	  0.454376	  0.483941	  0.195881	
9.6623	  0.445936	  0.445040	  0.187443	
9.73387	  0.413285	  0.419161	  0.169750	
9.80544	  0.370186	  0.417305	  0.156347	
9.87702	  0.347348	  0.424972	  0.153173	
9.94859	  0.368992	  0.436375	  0.159306	
10.0202	  0.418082	  0.461201	  0.174032	
10.0917	  0.470842	  0.488334	  0.187082	
10.1633	  0.486084	  0.500323	  0.193577	
10.2349	  0.458907	  0.490910	  0.191819	
10.3065	  0.397214	  0.464788	  0.179187	
10.378	  0.313541	  0.395530	  0.153805	
10.4496	  0.234248	  0.296534	  0.124381	
10.5212	  0.172697	  0.198079	  0.097783	
10.5927	  0.130162	  0.125999	  0.073945	
10.6643	  0.092083	  0.075566	  0.053472	
10.7359	  0.058031	  0.043434	  0.037209	
10.8075	  0.033922	  0.025714	  0.025422	
10.879	  0.022038	  0.018700	  0.016817	
10.9506	  0.018767	  0.017655	  0.011768	
11.0222	  0.019568	  0.018865	  0.010186	
11.0937	  0.021588	  0.019941	  0.010936	
11.1653	  0.023584	  0.020489	  0.012727	
11.2369	  0.024809	  0.021432	  0.013826	
11.3085	  0.025753	  0.022616	  0.013707	
11.38	  0.026572	  0.023529	  0.012808	
11.4516	  0.026474	  0.023628	  0.011540	
